Coordinates
version=1
nRows=7
nColumns=40
inDegrees=yes

Units are S.I. units (second, meters, Newtons, ...)
If the header above contains a line with 'inDegrees', this indicates whether rotational values are in degrees (yes) or radians (no).

endheader
time	pelvis_tilt	pelvis_list	pelvis_rotation	pelvis_tx	pelvis_ty	pelvis_tz	hip_flexion_r	hip_adduction_r	hip_rotation_r	knee_angle_r	knee_angle_r_beta	ankle_angle_r	subtalar_angle_r	mtp_angle_r	hip_flexion_l	hip_adduction_l	hip_rotation_l	knee_angle_l	knee_angle_l_beta	ankle_angle_l	subtalar_angle_l	mtp_angle_l	lumbar_extension	lumbar_bending	lumbar_rotation	arm_flex_r	arm_add_r	arm_rot_r	elbow_flex_r	pro_sup_r	wrist_flex_r	wrist_dev_r	arm_flex_l	arm_add_l	arm_rot_l	elbow_flex_l	pro_sup_l	wrist_flex_l	wrist_dev_l
      5.25000000	     -2.08939237	     -3.82712116	     -7.57152568	     -0.28978592	      0.82412958	     -0.98915361	      9.26935303	     -6.10247068	      0.43079193	     93.09346613	      1.62478750	    -21.46756503	      0.00000000	      0.00000000	     42.93697320	     -7.43394240	     -9.25558478	     85.43671952	      1.49115206	     31.03197050	      0.00000000	      0.00000000	    -14.13558690	     -2.61760584	      8.82238332	     89.93261451	    -14.12545842	     23.64024438	     38.95852290	     83.84887472	      0.00000000	      0.00000000	     89.94765908	    -19.38285171	     36.08677289	     47.67875364	     85.67903288	      0.00000000	      0.00000000
      5.25500000	     -2.10308660	     -3.83088175	     -7.53257650	     -0.28974620	      0.82384878	     -0.98907729	      9.28035415	     -6.08714492	      0.38940542	     93.10925497	      1.62506306	    -21.42479943	      0.00000000	      0.00000000	     42.98430806	     -7.43305361	     -9.22745392	     85.49696798	      1.49220359	     31.05765157	      0.00000000	      0.00000000	    -14.14561325	     -2.61658529	      8.82559875	     89.93256677	    -14.15416468	     23.63752834	     38.99543270	     83.87100104	      0.00000000	      0.00000000	     89.94791483	    -19.32000461	     36.02956996	     47.69119359	     85.64051853	      0.00000000	      0.00000000
      5.26000000	     -2.09568562	     -3.83849390	     -7.51502101	     -0.28972984	      0.82363596	     -0.98895478	      9.27721447	     -6.05403322	      0.40276322	     93.11538685	      1.62517008	    -21.45588554	      0.00000000	      0.00000000	     43.00420156	     -7.45476152	     -9.22187271	     85.54676489	      1.49307271	     31.09026156	      0.00000000	      0.00000000	    -14.17798358	     -2.61916130	      8.81721324	     89.93272634	    -14.12902319	     23.50795756	     39.01676475	     84.16828370	      0.00000000	      0.00000000	     89.94811075	    -19.30636060	     36.00587234	     47.72108135	     85.51371124	      0.00000000	      0.00000000
      5.26500000	     -2.17992108	     -3.93550453	     -7.46138393	     -0.28979467	      0.82323466	     -0.98886210	      9.34943285	     -5.90243654	      0.36699249	     93.09278946	      1.62477569	    -21.49332743	      0.00000000	      0.00000000	     43.16088122	     -7.53618854	     -9.10845594	     85.65480662	      1.49495840	     31.12783776	      0.00000000	      0.00000000	    -14.11601057	     -2.51666282	      8.84723137	     89.93281075	    -14.21183094	     23.58525042	     39.05057118	     83.93593724	      0.00000000	      0.00000000	     89.94833781	    -19.16626143	     35.87567644	     47.67150716	     85.53516874	      0.00000000	      0.00000000
      5.27000000	     -2.18566535	     -3.91098124	     -7.46232932	     -0.28980013	      0.82304270	     -0.98873103	      9.37121174	     -5.90682195	      0.38546935	     93.08795986	      1.62469139	    -21.54992505	      0.00000000	      0.00000000	     43.18182931	     -7.54854264	     -9.15138012	     85.69173029	      1.49560284	     31.12525073	      0.00000000	      0.00000000	    -14.13075360	     -2.54652063	      8.82361389	     89.93293355	    -14.13094287	     23.51280680	     39.04325827	     83.97709861	      0.00000000	      0.00000000	     89.94851184	    -19.20790468	     35.86542217	     47.74220185	     85.47446188	      0.00000000	      0.00000000
      5.27500000	     -2.16356409	     -3.91747364	     -7.45362726	     -0.28988537	      0.82287444	     -0.98866548	      9.35977661	     -5.87504281	      0.41396628	     93.08744564	      1.62468242	    -21.62368358	      0.00000000	      0.00000000	     43.18366151	     -7.56125770	     -9.14901478	     85.72356586	      1.49615847	     31.12291089	      0.00000000	      0.00000000	    -14.18470322	     -2.53730340	      8.79315256	     89.93315888	    -14.02575930	     23.39804307	     39.00113204	     83.96384984	      0.00000000	      0.00000000	     89.94864132	    -19.23801943	     35.81444587	     47.76721464	     85.55392427	      0.00000000	      0.00000000
      5.28000000	     -2.15034398	     -3.93020656	     -7.44419535	     -0.28993284	      0.82268731	     -0.98855536	      9.35060574	     -5.84726891	      0.42223113	     93.06466202	      1.62428477	    -21.70941665	      0.00000000	      0.00000000	     43.19361518	     -7.57635876	     -9.14070827	     85.76896860	      1.49695090	     31.09389516	      0.00000000	      0.00000000	    -14.22628554	     -2.53515347	      8.76654171	     89.93327945	    -13.94436568	     23.26234897	     38.98160546	     83.94257956	      0.00000000	      0.00000000	     89.94892574	    -19.25300973	     35.76413072	     47.81699806	     85.56165755	      0.00000000	      0.00000000
